<svg xmlns="http://www.w3.org/2000/svg" width="300" height="101" viewBox="0 0 300 101"><g transform="translate(-1006 -4198)"><g transform="translate(19 1683)"><g transform="translate(477 131)"><rect width="300" height="101" rx="50.5" transform="translate(510 2384)" fill="#3498db"/></g><g transform="translate(-26.102)"><text transform="translate(1126 2573)" fill="#fff" font-size="24" font-family="Roboto-Medium, Roboto" font-weight="500" letter-spacing="0.024em"><tspan x="0" y="0">Inserir itens</tspan></text></g></g><g transform="translate(1043 4225)"><path d="M39,45H36V30H18V45H15V30a3,3,0,0,1,3-3H36a3,3,0,0,1,3,3Z" fill="#fff" stroke="#fff" stroke-width="1.5"/><path d="M7.755,24,3,28.755l2.116,2.128L12,24,5.13,17.13,3,19.245Z" fill="#fff" stroke="#fff" stroke-width="1.5"/><path d="M36,21H18a3,3,0,0,1-3-3V3h3V18H36V3h3V18a3,3,0,0,1-3,3Z" fill="#fff" stroke="#fff" stroke-width="1.5"/></g></g></svg>