<svg xmlns="http://www.w3.org/2000/svg" width="402" height="101" viewBox="0 0 402 101"><g transform="translate(-579 -4198)"><g transform="translate(69 1683)"><g transform="translate(0 131)"><rect width="402" height="101" rx="50.5" transform="translate(510 2384)" fill="#3498db"/></g><text transform="translate(615 2574)" fill="#fff" font-size="24" font-family="Roboto-Medium, Roboto" font-weight="500" letter-spacing="0.024em"><tspan x="0" y="0">Temperatura de cor</tspan></text><g transform="translate(540.474 2539.982)"><circle cx="3.466" cy="3.466" r="3.466" transform="translate(13.398 16.866)" fill="#fff"/><circle cx="3.5" cy="3.5" r="3.5" transform="translate(23.526 12.018)" fill="#fff"/><circle cx="3.466" cy="3.466" r="3.466" transform="translate(34.194 16.866)" fill="#fff"/><circle cx="3.466" cy="3.466" r="3.466" transform="translate(35.927 27.264)" fill="#fff"/><circle cx="3.466" cy="3.466" r="3.466" transform="translate(28.995 35.929)" fill="#fff"/><path d="M28.2,3A24.262,24.262,0,0,0,3,27.264a8.353,8.353,0,0,0,10.554,8.058l1.941-.537a5.2,5.2,0,0,1,6.568,5.026v6.516a5.2,5.2,0,0,0,5.2,5.2A24.271,24.271,0,0,0,28.2,3ZM42.252,41.665a20.674,20.674,0,0,1-14.99,6.395,1.733,1.733,0,0,1-1.733-1.733V39.811a8.665,8.665,0,0,0-8.665-8.665,8.786,8.786,0,0,0-2.3.312L12.618,32a4.887,4.887,0,0,1-6.152-4.731,20.8,20.8,0,0,1,21.61-20.8A21.108,21.108,0,0,1,48.057,26.45a20.605,20.605,0,0,1-5.805,15.233Z" transform="translate(0)" fill="#fff"/></g></g></g></svg>