<svg xmlns="http://www.w3.org/2000/svg" width="281" height="101" viewBox="0 0 281 101"><g transform="translate(-579 -4328)"><g transform="translate(-408 1813)"><g transform="translate(477 131)"><rect width="281" height="101" rx="50.5" transform="translate(510 2384)" fill="#3498db"/></g><g transform="translate(1.898)"><text transform="translate(1090.102 2574.604)" fill="#fff" font-size="24" font-family="Roboto-Medium, Roboto" font-weight="500" letter-spacing="0.024em"><tspan x="0" y="0">Máscara</tspan></text><g transform="translate(1026.102 2536)"><g transform="translate(-11 1.208)"><path d="M24.979,29.958A4.979,4.979,0,1,0,20,24.979,4.979,4.979,0,0,0,24.979,29.958Z" transform="translate(3.917 3.917)" fill="#fff"/><path d="M28.9,53.792a24.9,24.9,0,1,1,24.9-24.9A24.9,24.9,0,0,1,28.9,53.792Zm-7.394-6.4a7.469,7.469,0,1,1,14.786,0A19.981,19.981,0,0,0,47.4,36.29a7.469,7.469,0,1,1,0-14.783A19.981,19.981,0,0,0,36.287,10.4a7.469,7.469,0,1,1-14.786,0A19.981,19.981,0,0,0,10.4,21.5a7.468,7.468,0,1,1,0,14.786,19.981,19.981,0,0,0,11.1,11.1Z" fill="#fff" fill-rule="evenodd"/></g></g></g></g></g></svg>