<svg xmlns="http://www.w3.org/2000/svg" width="409" height="101" viewBox="0 0 409 101"><g transform="translate(-987 -2382)"><g transform="translate(477 -2)"><rect width="409" height="101" rx="50.5" transform="translate(510 2384)" fill="#3498db"/></g><text transform="translate(1139 2427)" fill="#fff" font-size="24" font-family="Roboto-Medium, Roboto" font-weight="500" letter-spacing="0.024em"><tspan x="0" y="0">Iluminação</tspan><tspan x="0" y="24">e sombreamento</tspan></text><g transform="translate(1037.328 2404.035)"><g transform="translate(5.998 0)"><path d="M16.817,1.078A1.779,1.779,0,0,1,18.454,0H36.245a1.79,1.79,0,0,1,1.637,1.078L48.556,25.985a1.779,1.779,0,0,1-1.292,2.444h-.007c-.534.107-1.067.2-1.6.288A116.459,116.459,0,0,1,29.128,30.23v17.8a1.779,1.779,0,0,1-3.558,0V30.227A116.541,116.541,0,0,1,9.043,28.714c-.534-.089-1.067-.178-1.6-.285H7.431a1.779,1.779,0,0,1-1.288-2.448L16.817,1.075ZM10.306,25.32a111.264,111.264,0,0,0,17.044,1.366A111.263,111.263,0,0,0,44.4,25.32L35.074,3.558H19.628L10.3,25.32Z" transform="translate(-5.998 0)" fill="#fff" stroke="#f5f5f5" stroke-width="0.5" fill-rule="evenodd"/><path d="M21.429,37.957A1.779,1.779,0,0,1,19.966,40a20.231,20.231,0,0,0-5.889,1.754,4.693,4.693,0,0,0-1.317.943,1.071,1.071,0,0,0-.185.267l0,.014-.014.036v.014l.007.028a.523.523,0,0,0,.057.117,2.206,2.206,0,0,0,.516.534,9.753,9.753,0,0,0,2.893,1.405,35.582,35.582,0,0,0,10.76,1.473,35.469,35.469,0,0,0,10.76-1.473,9.842,9.842,0,0,0,2.893-1.405,2.206,2.206,0,0,0,.519-.534.526.526,0,0,0,.053-.117l.007-.028v-.014a1.071,1.071,0,0,0-.2-.32,4.69,4.69,0,0,0-1.317-.939A20.266,20.266,0,0,0,33.615,40a1.779,1.779,0,1,1,.584-3.508,23.623,23.623,0,0,1,6.963,2.114c1.64.865,3.419,2.288,3.419,4.423a4.516,4.516,0,0,1-1.936,3.476,13.285,13.285,0,0,1-3.971,1.985,38.993,38.993,0,0,1-11.884,1.655,38.993,38.993,0,0,1-11.884-1.655,13.286,13.286,0,0,1-3.971-1.985A4.516,4.516,0,0,1,9,43.031c0-2.131,1.779-3.558,3.419-4.423a23.623,23.623,0,0,1,6.963-2.114,1.779,1.779,0,0,1,2.046,1.462Z" transform="translate(-5.439 6.784)" fill="#fff" stroke="#f5f5f5" stroke-width="0.5"/></g></g></g></svg>