<svg xmlns="http://www.w3.org/2000/svg" width="301" height="101" viewBox="0 0 301 101"><g transform="translate(-973 -4068)"><g transform="translate(-14 1686)"><g transform="translate(477 -2)"><rect width="301" height="101" rx="50.5" transform="translate(510 2384)" fill="#3498db"/></g><text transform="translate(1117 2441)" fill="#fff" font-size="24" font-family="Roboto-Medium, Roboto" font-weight="500" letter-spacing="0.024em"><tspan x="0" y="0">Saturação</tspan></text></g><g transform="translate(1010 4085.615)"><path d="M22.5,3h4.269V9.4H22.5Z" transform="translate(8.25 0)" fill="#fff"/><path d="M40.5,22.5h6.4v4.269H40.5Z" transform="translate(15.865 8.25)" fill="#fff"/><path d="M22.5,40.5h4.269v6.4H22.5Z" transform="translate(8.25 15.865)" fill="#fff"/><path d="M3,22.5H9.4v4.269H3Z" transform="translate(0 8.25)" fill="#fff"/><path d="M8.186,11.214l3.023-3.023,4.532,4.532-3.023,3.025Z" transform="translate(2.194 2.196)" fill="#fff"/><path d="M34.5,12.715,39.025,8.19l3.02,3.018-4.53,4.528Z" transform="translate(13.327 2.196)" fill="#fff"/><path d="M34.5,37.523,37.524,34.5l4.53,4.532-3.02,3.023Z" transform="translate(13.327 13.327)" fill="#fff"/><path d="M8.205,39.038,12.733,34.5l3.008,3.029-4.517,4.528Z" transform="translate(2.202 13.327)" fill="#fff"/><path d="M22.5,19.5h4.269v4.269H22.5Z" transform="translate(8.25 6.981)" fill="#fff"/><path d="M28.5,19.5h4.269v4.269H28.5Z" transform="translate(10.788 6.981)" fill="#fff"/><path d="M25.5,16.5h4.269v4.269H25.5Z" transform="translate(9.519 5.711)" fill="#fff"/><path d="M25.5,22.5h4.269v4.269H25.5Z" transform="translate(9.519 8.25)" fill="#fff"/><path d="M25.5,28.5h4.269v4.269H25.5Z" transform="translate(9.519 10.788)" fill="#fff"/><path d="M22.5,25.5h4.269v4.269H22.5Z" transform="translate(8.25 9.519)" fill="#fff"/><path d="M28.5,25.5h4.269v4.269H28.5Z" transform="translate(10.788 9.519)" fill="#fff"/><path d="M29.711,10.5A19.211,19.211,0,1,0,48.923,29.711,19.211,19.211,0,0,0,29.711,10.5ZM14.769,29.711A14.951,14.951,0,0,1,27.577,14.94v4.1h4.269v-4.1a14.778,14.778,0,0,1,4.269,1.291v2.807H40.15l.235.235v4.034h2.807a14.8,14.8,0,0,1,1.291,4.269h-4.1v4.269h4.1a14.8,14.8,0,0,1-1.291,4.269H40.385V40.15q-.116.119-.235.235H36.115v2.807a14.778,14.778,0,0,1-4.269,1.291v-4.1H27.577v4.1A14.951,14.951,0,0,1,14.769,29.711Z" transform="translate(3.173 3.173)" fill="#fff"/></g></g></svg>