<svg xmlns="http://www.w3.org/2000/svg" width="409" height="101" viewBox="0 0 409 101"><g transform="translate(-987 -2515)"><g transform="translate(477 131)"><rect width="409" height="101" rx="50.5" transform="translate(510 2384)" fill="#3498db"/></g><g transform="translate(1.898)"><text transform="translate(1126 2562)" fill="#fff" font-size="24" font-family="Roboto-Medium, Roboto" font-weight="500" letter-spacing="0.024em"><tspan x="0" y="0">Posição de câmera</tspan><tspan x="0" y="24">e enquadramento</tspan></text><g transform="translate(1038.102 2539)"><g transform="translate(0 9)"><path d="M0,15.894A6.894,6.894,0,0,1,6.894,9H32.745a6.894,6.894,0,0,1,6.835,5.991L50.3,10.227a3.447,3.447,0,0,1,4.85,3.147v25.72A3.447,3.447,0,0,1,50.3,42.241L39.58,37.478a6.894,6.894,0,0,1-6.835,5.991H6.894A6.894,6.894,0,0,1,0,36.575ZM39.639,33.731,51.7,39.094V13.374L39.639,18.737V33.731ZM6.894,12.447a3.447,3.447,0,0,0-3.447,3.447V36.575a3.447,3.447,0,0,0,3.447,3.447H32.745a3.447,3.447,0,0,0,3.447-3.447V15.894a3.447,3.447,0,0,0-3.447-3.447Z" transform="translate(0 -9)" fill="#fff" fill-rule="evenodd"/></g></g></g></g></svg>