<svg xmlns="http://www.w3.org/2000/svg" width="323" height="101" viewBox="0 0 323 101"><g transform="translate(-510 -2382)"><g transform="translate(510 2382)"><rect width="323" height="101" rx="50.5" fill="#3498db"/><g transform="translate(55.852 21.977)"><path d="M0,0H4.005V56.077H0Z" transform="translate(30.041 56.077) rotate(180)" fill="#fff"/><path d="M25.03,28.022a2,2,0,0,1-.773,1.582L6.232,43.624A2,2,0,0,1,3,42.041V14a2,2,0,0,1,3.232-1.582L24.257,26.44a2,2,0,0,1,.773,1.582ZM7.005,37.948l12.759-9.926L7.005,18.1Z" transform="translate(-3 0.016)" fill="#fff"/><path d="M3,28.022A2,2,0,0,0,3.773,29.6L21.8,43.624a2,2,0,0,0,3.232-1.582V14A2,2,0,0,0,21.8,12.421L3.773,26.44A2,2,0,0,0,3,28.022Zm18.025,9.926L8.265,28.022,21.025,18.1Z" transform="translate(31.047 0.016)" fill="#fff"/></g></g><text transform="translate(673 2439)" fill="#fff" font-size="24" font-family="Roboto-Medium, Roboto" font-weight="500" letter-spacing="0.024em"><tspan x="0" y="0">Reflexos</tspan></text></g></svg>