<svg xmlns="http://www.w3.org/2000/svg" width="323" height="101" viewBox="0 0 323 101"><g transform="translate(-510 -2515)"><g transform="translate(0 131)"><rect width="323" height="101" rx="50.5" transform="translate(510 2384)" fill="#3498db"/></g><text transform="translate(640 2574)" fill="#fff" font-size="24" font-family="Roboto-Medium, Roboto" font-weight="500" letter-spacing="0.024em"><tspan x="0" y="0">Imperfeições</tspan></text><path d="M32.741,6,15,22.492l3.584,3.331,11.623-10.8V30.967a6.785,6.785,0,0,1-1.665,4.415L22.846,42a11.317,11.317,0,0,0-2.778,7.36V62.545h5.069V49.358A6.785,6.785,0,0,1,26.8,44.943L32.5,38.327a11.317,11.317,0,0,0,2.778-7.36V15.019L46.9,25.824l3.584-3.331Z" transform="translate(553 2530.455)" fill="#fff"/></g></svg>