<svg id="btn_hexa" xmlns="http://www.w3.org/2000/svg" width="291" height="101" viewBox="0 0 291 101">
  <g id="Grupo_319" data-name="Grupo 319" transform="translate(0)">
    <rect id="Retângulo_139" data-name="Retângulo 139" width="291" height="101" rx="50.5" fill="#3498db"/>
    <path id="Icon_awesome-hashtag" data-name="Icon awesome-hashtag" d="M50.872,19.579l.825-4.618a1.385,1.385,0,0,0-1.364-1.629H41.7l1.688-9.454A1.385,1.385,0,0,0,42.021,2.25H37.33a1.385,1.385,0,0,0-1.364,1.142l-1.775,9.941H22.8l1.688-9.454A1.385,1.385,0,0,0,23.129,2.25H18.438a1.385,1.385,0,0,0-1.364,1.142L15.3,13.332H6.168A1.385,1.385,0,0,0,4.8,14.474L3.98,19.092a1.385,1.385,0,0,0,1.364,1.629H13.98L11.341,35.5H2.21A1.385,1.385,0,0,0,.847,36.639L.022,41.257a1.385,1.385,0,0,0,1.364,1.629h8.636L8.334,52.339A1.385,1.385,0,0,0,9.7,53.968h4.691a1.385,1.385,0,0,0,1.364-1.142l1.775-9.941H28.914l-1.688,9.454a1.385,1.385,0,0,0,1.364,1.629H33.28a1.385,1.385,0,0,0,1.364-1.142l1.775-9.941H45.55a1.385,1.385,0,0,0,1.364-1.142l.825-4.618A1.385,1.385,0,0,0,46.374,35.5H37.738l2.639-14.777h9.131a1.385,1.385,0,0,0,1.364-1.142ZM30.233,35.5H18.847l2.639-14.777H32.872Z" transform="translate(71.944 22.391)" fill="#fff"/>
  </g>
  <text id="HEX" transform="translate(140 62)" fill="#fff" font-size="33" font-family="Roboto-Medium, Roboto" font-weight="500" letter-spacing="0.024em"><tspan x="0" y="0">HEX</tspan></text>
</svg>
