<svg id="btn_cmyk" xmlns="http://www.w3.org/2000/svg" width="291" height="101" viewBox="0 0 291 101">
  <g id="Grupo_326" data-name="Grupo 326" transform="translate(0)">
    <g id="Grupo_319" data-name="Grupo 319" transform="translate(0)">
      <rect id="Retângulo_139" data-name="Retângulo 139" width="291" height="101" rx="50.5" fill="#3498db"/>
    </g>
    <g id="Icon_feather-printer" data-name="Icon feather-printer" transform="translate(60.646 25.821)">
      <path id="Caminho_189" data-name="Caminho 189" d="M9,20.281V3H36.111V20.281" transform="translate(0.037 -3)" fill="none" stroke="#f5f5f5" stroke-linecap="round" stroke-linejoin="round" stroke-width="4"/>
      <path id="Caminho_190" data-name="Caminho 190" d="M12.037,35.718H7.518A4.742,4.742,0,0,1,3,30.781V18.437A4.742,4.742,0,0,1,7.519,13.5H43.666a4.742,4.742,0,0,1,4.518,4.937V30.781a4.742,4.742,0,0,1-4.518,4.937H39.148" transform="translate(-3 3.781)" fill="none" stroke="#f5f5f5" stroke-linecap="round" stroke-linejoin="round" stroke-width="4"/>
      <path id="Caminho_191" data-name="Caminho 191" d="M9,21H36.111V40.75H9Z" transform="translate(0.037 8.624)" fill="none" stroke="#f5f5f5" stroke-linecap="round" stroke-linejoin="round" stroke-width="4"/>
    </g>
  </g>
  <text id="CMYK" transform="translate(127 62)" fill="#fff" font-size="33" font-family="Roboto-Medium, Roboto" font-weight="500" letter-spacing="0.024em"><tspan x="0" y="0">CMYK</tspan></text>
</svg>
