<svg xmlns="http://www.w3.org/2000/svg" xmlns:xlink="http://www.w3.org/1999/xlink" width="211" height="78" viewBox="0 0 211 78">
  <defs>
    <filter id="Ret창ngulo_124" x="0" y="0" width="211" height="78" filterUnits="userSpaceOnUse">
      <feOffset dx="10" dy="10" input="SourceAlpha"/>
      <feGaussianBlur stdDeviation="5" result="blur"/>
      <feFlood flood-opacity="0.161"/>
      <feComposite operator="in" in2="blur"/>
      <feComposite in="SourceGraphic"/>
    </filter>
  </defs>
  <g id="btn_imprimir" transform="translate(1064 3480)">
    <g transform="matrix(1, 0, 0, 1, -1064, -3480)" filter="url(#Ret창ngulo_124)">
      <rect id="Ret창ngulo_124-2" data-name="Ret창ngulo 124" width="181" height="48" rx="24" transform="translate(5 5)" fill="#465c53"/>
    </g>
    <text id="IMPRIMIR" transform="translate(-989 -3446)" fill="#fff" font-size="15" font-family="Roboto-Medium, Roboto" font-weight="500" letter-spacing="0.015em"><tspan x="-34.424" y="0">IMPRIMIR</tspan></text>
    <path id="Icon_awesome-print" data-name="Icon awesome-print" d="M23.625,10.125V4.074a1.688,1.688,0,0,0-.494-1.193L20.744.494A1.688,1.688,0,0,0,19.551,0H5.063A1.688,1.688,0,0,0,3.375,1.688v8.438A3.375,3.375,0,0,0,0,13.5v5.906a.844.844,0,0,0,.844.844H3.375v5.063A1.688,1.688,0,0,0,5.063,27H21.938a1.688,1.688,0,0,0,1.688-1.687V20.25h2.531A.844.844,0,0,0,27,19.406V13.5A3.375,3.375,0,0,0,23.625,10.125Zm-3.375,13.5H6.75V18.563h13.5Zm0-11.812H6.75V3.375H16.875V5.906a.844.844,0,0,0,.844.844H20.25Zm2.531,3.8a1.266,1.266,0,1,1,1.266-1.266A1.266,1.266,0,0,1,22.781,15.609Z" transform="translate(-935.1 -3464.5)" fill="#ff8448"/>
  </g>
</svg>
